<?xml version="1.0" encoding="UTF-8"?>
<svg id="Layer_2" xmlns="http://www.w3.org/2000/svg" viewBox="0 0 59.52 58.27">
  <defs>
    <style>
      .cls-1, .cls-2 {
        opacity: .95;
      }

      .cls-2 {
        fill: #de1c00;
      }
    </style>
  </defs>
  <g id="Layer_1-2" data-name="Layer_1">
    <g class="cls-1">
      <path class="cls-2" d="M19.88,42.39c-2.59,0-5.18-.11-7.76.04-1.8.1-3.19-.52-4.53-1.58C-4.3,31.48-1.8,12.73,12.13,6.86c11.66-4.91,24.88,2.17,27.29,14.62,1.54,7.97-1.96,16.08-8.86,20.4-.5.31-1.18.48-1.77.49-2.97.05-5.94.02-8.91.02ZM19.81,37.1c2.46,0,4.92.05,7.38-.03.66-.02,1.43-.29,1.94-.7,4.84-3.97,6.61-10.41,4.5-16.07-2.3-6.13-7.68-9.84-14.09-9.7-6.14.13-11.35,3.89-13.45,9.72-2.02,5.58-.3,12.03,4.33,15.91.59.49,1.5.81,2.27.84,2.37.11,4.75.04,7.13.04Z"/>
      <path class="cls-2" d="M19.83,45.04c3.06,0,6.11.06,9.17-.03,1.26-.03,1.66.41,1.55,1.61-.09.93-.04,1.87-.01,2.8.02.71-.29.96-.99.96-6.45-.02-12.9-.02-19.35,0-.75,0-.95-.31-.93-1,.04-1.06.06-2.12,0-3.18-.06-.9.27-1.18,1.15-1.17,3.14.04,6.28.02,9.42.01Z"/>
      <path class="cls-2" d="M54.31,7.86c-1.59.74-2.86,1.39-4.18,1.92-.84.34-1.38.83-1.73,1.7-.56,1.4-1.26,2.74-2,4.32-.75-1.64-1.3-3.06-2.03-4.39-.33-.61-.93-1.17-1.54-1.51-1.29-.72-2.66-1.28-4.28-2.03,1.51-.7,2.76-1.37,4.08-1.87,1-.38,1.58-1.04,1.96-1.99.51-1.25,1.11-2.47,1.8-4.01.71,1.51,1.37,2.76,1.89,4.07.39.98,1.03,1.57,1.99,1.96,1.28.51,2.51,1.14,4.03,1.84Z"/>
      <path class="cls-2" d="M25.03,52.97c.17,2.81-1.95,5.07-4.79,5.28-2.72.2-5.41-1.94-5.53-4.48-.01-.26.47-.55.74-.8.07-.06.25,0,.37,0,3.04,0,6.08,0,9.2,0Z"/>
      <path class="cls-2" d="M59.52,21.1c-2.6.91-4.36,2.39-5.05,5.13-1-2.44-2.38-4.34-5.15-5.02,2.52-.93,4.35-2.37,5.03-5.11.88,2.63,2.42,4.35,5.17,5Z"/>
    </g>
  </g>
</svg>