<svg xmlns="http://www.w3.org/2000/svg" width="760" height="680" viewBox="0 0 760 680">
  <path id="icon-newchat" d="M120-160V-760q0-33,23.5-56.5T200-840H680q33,0,56.5,23.5T760-760v203a136.654,136.654,0,0,0-20-2.5q-10-.5-20-.5t-20,.5a136.654,136.654,0,0,0-20,2.5V-760H200v400H483a136.654,136.654,0,0,0-2.5,20q-.5,10-.5,20t.5,20a136.654,136.654,0,0,0,2.5,20H240ZM280-600H600v-80H280Zm0,160H480v-80H280ZM680-160V-280H560v-80H680V-480h80v120H880v80H760v120ZM200-360v0Z" transform="translate(-120 840)" fill="#dc0000"/>
</svg>
