<svg xmlns="http://www.w3.org/2000/svg" width="679.845" height="679.999" viewBox="0 0 679.845 679.999">
  <g id="icon-about" transform="translate(-7601.705 -2353.681)">
    <g id="Group_5824" data-name="Group 5824" transform="translate(7601.705 2353.68)">
      <path id="Subtraction_1" data-name="Subtraction 1" d="M-6710.013-3339a336.051,336.051,0,0,1-103.76-16.358,339.643,339.643,0,0,1-91.05-45.6l99.9-148.743a159.559,159.559,0,0,0,94.908,30.674,159.1,159.1,0,0,0,94.958-30.789l102.065,146.832-85.076-161.28c30.673-30.076,47.565-70.769,47.565-114.582,0-89.618-70.066-159.819-159.512-159.819-89.617,0-159.817,70.2-159.817,159.819,0,44.324,17.3,85.361,48.722,115.552l-83.9,162.206a345.735,345.735,0,0,1-59.559-53.4,343.941,343.941,0,0,1-45.746-65.843,338.073,338.073,0,0,1-29.345-75.7A336.961,336.961,0,0,1-7050.012-3679a337.712,337.712,0,0,1,6.954-68.2,337.09,337.09,0,0,1,19.922-63.671,341.77,341.77,0,0,1,31.485-57.734A345.8,345.8,0,0,1-6950.01-3919a345.789,345.789,0,0,1,50.391-41.641,341.748,341.748,0,0,1,57.734-31.485,337.1,337.1,0,0,1,63.671-19.922,337.72,337.72,0,0,1,68.2-6.953,337.627,337.627,0,0,1,68.195,6.953,336.866,336.866,0,0,1,63.654,19.922,341.408,341.408,0,0,1,57.709,31.485A345.5,345.5,0,0,1-6470.092-3919a345.669,345.669,0,0,1,41.613,50.391,341.765,341.765,0,0,1,31.46,57.734,337.289,337.289,0,0,1,19.9,63.671,338.068,338.068,0,0,1,6.947,68.2,338.062,338.062,0,0,1-6.947,68.2,337.278,337.278,0,0,1-19.9,63.671,341.737,341.737,0,0,1-31.46,57.734A345.669,345.669,0,0,1-6470.092-3439a345.541,345.541,0,0,1-50.363,41.641,341.411,341.411,0,0,1-57.709,31.485,336.826,336.826,0,0,1-63.654,19.923A337.63,337.63,0,0,1-6710.013-3339Z" transform="translate(7050.012 4019)" fill="#dc0000"/>
      <path id="path3355" d="M778.042,575.373C649.694,661.3,507.616,652.506,391.3,574.911L585.828,290.6Z" transform="translate(-245.057 39.372)" fill="#dc0000"/>
    </g>
  </g>
</svg>
