<svg xmlns="http://www.w3.org/2000/svg" width="679.999" height="679.999" viewBox="0 0 679.999 679.999">
  <path id="icon-prompt" d="M245-120q-35.062,0-60.031-24.969T160-205q0-35.062,24.969-60.031T245-290q35.062,0,60.031,24.969T330-205q0,35.062-24.969,60.031T245-120Zm255,0q-35.062,0-60.031-24.969T415-205q0-35.062,24.969-60.031T500-290q35.062,0,60.031,24.969T585-205q0,35.062-24.969,60.031T500-120Zm255,0q-35.062,0-60.031-24.969T670-205q0-35.062,24.969-60.031T755-290q35.062,0,60.031,24.969T840-205q0,35.062-24.969,60.031T755-120ZM245-375q-35.062,0-60.031-24.969T160-460q0-35.062,24.969-60.031T245-545q35.062,0,60.031,24.969T330-460q0,35.062-24.969,60.031T245-375Zm255,0q-35.062,0-60.031-24.969T415-460q0-35.062,24.969-60.031T500-545q35.062,0,60.031,24.969T585-460q0,35.062-24.969,60.031T500-375Zm255,0q-35.062,0-60.031-24.969T670-460q0-35.062,24.969-60.031T755-545q35.062,0,60.031,24.969T840-460q0,35.062-24.969,60.031T755-375ZM245-630q-35.062,0-60.031-24.969T160-715q0-35.062,24.969-60.031T245-800q35.062,0,60.031,24.969T330-715q0,35.063-24.969,60.031T245-630Zm255,0q-35.062,0-60.031-24.969T415-715q0-35.062,24.969-60.031T500-800q35.062,0,60.031,24.969T585-715q0,35.063-24.969,60.031T500-630Zm255,0q-35.062,0-60.031-24.969T670-715q0-35.062,24.969-60.031T755-800q35.062,0,60.031,24.969T840-715q0,35.063-24.969,60.031T755-630Z" transform="translate(-160 800)" fill="#dc0000"/>
</svg>
