<?xml version="1.0" encoding="UTF-8"?>
<svg id="Layer_2" xmlns="http://www.w3.org/2000/svg" viewBox="0 0 28.57 25.49">
  <defs>
    <style>
      .cls-1 {
        fill: #f3f3f3;
        stroke: #808184;
        stroke-miterlimit: 10;
        stroke-width: .23px;
      }
 
      .cls-2 {
        fill: #dc0000;
      }
    </style>
  </defs>
  <g id="Layer_1-2" data-name="Layer_1">
    <g>
      <path class="cls-2" d="M7.48,25.49q0-.69,0-1.38c0-.73.57-1.31,1.31-1.31,1.03,0,2.06,0,3.09,0,.24,0,.25,0,.24-.24-.01-.31.03-.6.29-.8.1-.08.24-.13.35-.2.05-.03.11-.09.11-.14,0-.76,0-1.51,0-2.27,0-.12-.07-.15-.16-.17-.76-.2-1.45-.55-2.08-1.02-.6-.46-1.12-1-1.56-1.61-.16-.22-.31-.46-.47-.68-.05-.07-.13-.13-.21-.15-1.07-.27-2.08-.7-3.02-1.27-.85-.52-1.63-1.13-2.31-1.86-.85-.91-1.54-1.93-2.06-3.06-.49-1.08-.8-2.22-.93-3.4C.02,5.54,0,5.16,0,4.78c0-.49.32-.8.8-.8,1.48,0,2.97,0,4.45,0,.22,0,.24-.02.22-.24-.02-.37-.05-.74-.06-1.11,0-.16-.06-.24-.23-.27-.28-.04-.42-.21-.43-.49,0-.46,0-.92,0-1.38,0-.26.22-.47.48-.48.05,0,.1,0,.16,0,5.92,0,11.84,0,17.76,0,.03,0,.06,0,.09,0,.32,0,.54.19.54.51.01.45,0,.9,0,1.35,0,.28-.15.45-.43.5-.15.02-.2.08-.2.24,0,.41-.03.81-.05,1.22-.01.17.09.17.2.17,1.44,0,2.88.02,4.32,0,.66-.01.97.42.92.95-.06.64-.11,1.29-.22,1.93-.23,1.29-.71,2.49-1.39,3.62-.52.87-1.15,1.67-1.9,2.35-.49.45-1.04.86-1.59,1.24-.94.65-1.99,1.1-3.09,1.41-.09.03-.19.11-.25.19-.32.42-.62.87-.96,1.27-.43.51-.93.94-1.5,1.29-.52.32-1.06.57-1.65.73-.07.02-.13.04-.2.05-.1.02-.13.08-.13.17,0,.74,0,1.47,0,2.21,0,.11.04.15.14.19.4.13.61.43.61.85,0,.43-.05.38.38.38.97,0,1.93,0,2.9,0,.8,0,1.36.56,1.36,1.36l.09,1.33H7.48ZM7.54,13.66c-.01-.06-.02-.09-.03-.12-.23-.65-.48-1.29-.69-1.94-.38-1.22-.66-2.46-.86-3.72-.11-.74-.22-1.48-.32-2.23-.02-.15-.08-.19-.22-.19-1.23,0-2.46,0-3.7,0-.19,0-.22.03-.19.22.09.5.16,1.01.27,1.51.23.93.62,1.8,1.13,2.62.29.47.64.89,1,1.32.44.53.96.97,1.5,1.38.53.4,1.1.73,1.71,1.01.12.05.24.09.38.15ZM21.2,13.56s.01.02.02.03c.29-.14.58-.27.86-.43.66-.37,1.29-.8,1.83-1.35.27-.27.54-.53.8-.81.74-.81,1.28-1.75,1.68-2.76.33-.83.52-1.69.62-2.58.02-.18,0-.21-.19-.21-1.2,0-2.4,0-3.6,0-.04,0-.08-.01-.11,0-.05.03-.12.08-.12.13-.03.19-.04.39-.07.59-.09.67-.17,1.35-.28,2.01-.1.58-.21,1.16-.35,1.73-.22.85-.46,1.7-.71,2.54-.11.37-.26.73-.39,1.09Z"/>
      <path class="cls-1" d="M14.55,6.67l.82,1.51,1.69.31c.24.04.33.33.16.51l-1.18,1.25.22,1.7c.03.24-.21.42-.43.31l-1.55-.74-1.55.74c-.22.1-.46-.07-.43-.31l.22-1.7-1.18-1.25c-.17-.17-.07-.46.16-.51l1.69-.31.82-1.51c.11-.21.42-.21.53,0Z"/>
    </g>
  </g>
</svg> 