<?xml version="1.0" encoding="UTF-8"?>
<svg id="Layer_2" xmlns="http://www.w3.org/2000/svg" viewBox="0 0 180.69 270.68">
  <defs>
    <style>
      .cls-1 {
        fill: #dc0000;
      }
    </style>
  </defs>
  <g id="Layer_1-2" data-name="Layer_1">
    <path class="cls-1" d="M180.69,90.35C180.69,40.45,140.24,0,90.35,0S0,40.45,0,90.35c0,12.79,2.68,24.96,7.48,36h-.02l.04.04c2.67,6.12,5.99,11.9,9.89,17.23l72.96,127.07,72.97-127.09c3.88-5.31,7.21-11.07,9.88-17.19l.04-.05h-.02c4.79-11.04,7.48-23.2,7.48-36ZM89.45,135.97c-25.69,0-46.51-20.82-46.51-46.51s20.82-46.51,46.51-46.51,46.51,20.82,46.51,46.51-20.82,46.51-46.51,46.51Z"/>
  </g>
</svg>