<svg id="Notification" xmlns="http://www.w3.org/2000/svg" width="26" height="26" viewBox="0 0 26 26">
  <rect id="Rectangle_385" data-name="Rectangle 385" width="26" height="26" fill="none"/>
  <g id="Notification-2" data-name="Notification" transform="translate(-38 -19)">
    <path id="Path_26" data-name="Path 26" d="M61.886,39.471a1,1,0,0,0-.366-.378l-1.1-.66a2.9,2.9,0,0,1-1.409-2.489V29.991a7.993,7.993,0,0,0-5.75-7.664A.345.345,0,0,1,53.008,22a2,2,0,0,0-4,0,.345.345,0,0,1-.251.329,7.993,7.993,0,0,0-5.75,7.664v5.951A2.9,2.9,0,0,1,41.6,38.432l-1.1.66A1.016,1.016,0,0,0,41,40.981h20a1.023,1.023,0,0,0,.876-1.51Z" transform="translate(0)"/>
    <path id="Path_27" data-name="Path 27" d="M202.086,454.118a3.012,3.012,0,0,0,4.581-1.458h-5.68A3.022,3.022,0,0,0,202.086,454.118Z" transform="translate(-152.82 -410.671)"/>
  </g>
</svg>
