<svg id="Pickup" xmlns="http://www.w3.org/2000/svg" width="26" height="26" viewBox="0 0 26 26">
  <rect id="Rectangle_368" data-name="Rectangle 368" width="26" height="26" fill="none"/>
  <path id="Cart" d="M9,13H21a1.885,1.885,0,0,0,1.8-1.95V3.25A1.885,1.885,0,0,0,21,1.3H16.8V6.5L15,5.2,13.2,6.5V1.3H9A1.885,1.885,0,0,0,7.2,3.25v7.8A1.885,1.885,0,0,0,9,13Zm13.8,2.6H4.8V2.6A2.513,2.513,0,0,0,2.4,0H1.166A1.253,1.253,0,0,0,0,1.3,1.253,1.253,0,0,0,1.166,2.6H1.8a.626.626,0,0,1,.6.65V16.863a1.257,1.257,0,0,0,1.2,1.3H6.109A2.472,2.472,0,0,0,6,18.85,1.88,1.88,0,0,0,7.8,20.8a1.88,1.88,0,0,0,1.8-1.95,2.076,2.076,0,0,0-.109-.65h7.421a2.075,2.075,0,0,0-.11.65,1.8,1.8,0,1,0,3.6.037,2.075,2.075,0,0,0-.109-.65H22.8A1.326,1.326,0,0,0,24,16.863,1.247,1.247,0,0,0,22.8,15.6Z" transform="translate(1 3)"/>
</svg>
